<svg width="321" height="321" viewBox="0 0 321 321" fill="none" xmlns="http://www.w3.org/2000/svg">
<rect width="321" height="321" rx="48" fill="black"/>
<path d="M143.892 169.932L133.381 233H103.196L127.344 87.5455H156.676L147.585 143.156H148.793C152.296 136.717 157.102 131.674 163.21 128.028C169.318 124.335 176.539 122.489 184.872 122.489C192.448 122.489 198.769 124.146 203.835 127.46C208.949 130.727 212.571 135.438 214.702 141.594C216.832 147.702 217.188 155.017 215.767 163.54L204.119 233H173.935L184.588 168.938C185.677 162.214 184.801 156.982 181.96 153.241C179.167 149.501 174.716 147.631 168.608 147.631C164.489 147.631 160.701 148.507 157.244 150.259C153.788 152.01 150.876 154.567 148.509 157.929C146.188 161.243 144.65 165.244 143.892 169.932Z" fill="white"/>
</svg>
